<svg width="24" height="24" viewBox="0 0 24 24" fill="none" xmlns="http://www.w3.org/2000/svg"><g fill="#009432" fill-opacity=".5"><path d="M18.016 7.435a.245.245 0 0 0 .48-.091A6.613 6.613 0 0 0 5.387 8.57v9.794a.245.245 0 0 0 .246.244H13.8a.245.245 0 0 0 0-.49H5.876V8.57a6.128 6.128 0 0 1 6.122-6.122 6.133 6.133 0 0 1 6.018 4.987z"/><path d="M20.323 20.078H3.918V8.57A8.08 8.08 0 0 1 20.03 7.7a.245.245 0 0 0 .486-.053 8.57 8.57 0 0 0-17.09.923v11.52A3.665 3.665 0 0 0 0 23.75a.245.245 0 0 0 .245.245H23.75a.245.245 0 0 0 .244-.245 3.677 3.677 0 0 0-3.672-3.672zM.499 23.506a3.183 3.183 0 0 1 3.174-2.939h16.65a3.188 3.188 0 0 1 3.174 2.939H.499z"/><path d="M10.268 6.807A1.7 1.7 0 0 0 8.57 5.11a.245.245 0 0 0-.245.244v5.359a.245.245 0 0 0 .49 0V9.108l1.093 1.734a.245.245 0 1 0 .415-.26l-1.34-2.127a1.701 1.701 0 0 0 1.285-1.648zM8.816 7.991V5.623a1.21 1.21 0 0 1 0 2.368zM11.767 5.353v5.359a.245.245 0 1 0 .49 0V5.353a.245.245 0 1 0-.49 0zM13.728 5.353v5.359a.245.245 0 0 0 .49 0v-2.23a1.695 1.695 0 0 0-.245-3.373.245.245 0 0 0-.245.244zm1.454 1.454a1.211 1.211 0 0 1-.964 1.184V5.623a1.211 1.211 0 0 1 .964 1.184zM18.562 14.504a.772.772 0 1 0 1.092 1.092.772.772 0 0 0-1.092-1.092zm.745.746a.281.281 0 1 1-.397-.398.281.281 0 0 1 .397.398zM18.584 12.379a.847.847 0 1 0 1.197 1.197.847.847 0 0 0-1.197-1.197zm.851.851a.358.358 0 1 1-.505-.505.358.358 0 0 1 .505.505zM18.082 13.115a1.002 1.002 0 1 0-1.417 1.416 1.002 1.002 0 0 0 1.417-1.416zm-.346 1.07a.525.525 0 0 1-.725 0 .513.513 0 0 1 .725-.724.514.514 0 0 1 0 .725z"/><path d="M18.55 11.116v-1.029a.947.947 0 1 0-.49 0v1.029a2.797 2.797 0 0 0-1.564.648L15.2 10.467a.245.245 0 0 0-.347.346l1.297 1.297a2.8 2.8 0 0 0-.648 1.565h-1.029a.947.947 0 1 0 0 .49h1.03c.049.575.275 1.121.647 1.563l-1.297 1.297a.244.244 0 0 0 .078.403.245.245 0 0 0 .268-.057l1.297-1.297c.442.373.989.6 1.564.648v1.03a.947.947 0 1 0 .49 0v-1.03a2.801 2.801 0 0 0 1.564-.648l1.297 1.297a.245.245 0 0 0 .346-.346l-1.296-1.297c.372-.442.598-.988.647-1.564h1.03a.947.947 0 1 0 0-.49h-1.03a2.798 2.798 0 0 0-.647-1.564l1.297-1.297a.245.245 0 0 0-.347-.346l-1.297 1.297a2.798 2.798 0 0 0-1.564-.648zm-.702-1.94a.458.458 0 1 1 .916 0 .458.458 0 0 1-.916 0zm-4.286 5.201a.458.458 0 1 1 .001-.916.458.458 0 0 1-.001.916zm5.2 4.286a.458.458 0 1 1-.915 0 .458.458 0 0 1 .916 0zm4.286-5.2a.457.457 0 1 1 0 .914.457.457 0 0 1 0-.915zm-3.09 2.11a2.337 2.337 0 1 1-3.302-3.306 2.337 2.337 0 0 1 3.303 3.306zM20.323 21.547H3.673a.245.245 0 0 0 0 .49h16.65a.245.245 0 0 0 0-.49z"/></g></svg>