<svg width="24" height="24" viewBox="0 0 24 24" fill="none" xmlns="http://www.w3.org/2000/svg"><path d="M18.681 23.2a.403.403 0 0 1-.17-.038l-5.624-2.761a.388.388 0 0 1-.216-.328l-.158-3.317a2.818 2.818 0 0 1 .98-2.277l1.778-1.526c.288-.246.548-.53.773-.835l2.616-3.57V2.186c-.008-.004-.016-.008-.023-.014a.387.387 0 0 1-.183-.302l-.01-.146c-.002-.035-.002-.068-.002-.104 0-.724.485-1.368 1.18-1.567a1.342 1.342 0 0 1 1.68 1.005l1.2 5.639a.385.385 0 1 1-.753.16l-1.2-5.64a.557.557 0 0 0-.263-.367.56.56 0 0 0-.45-.058.867.867 0 0 0-.6.63l.02.011a.386.386 0 0 1 .174.322V8.67a.383.383 0 0 1-.075.227l-2.69 3.674c-.26.354-.56.68-.894.966l-1.776 1.524a2.07 2.07 0 0 0-.714 1.659l.146 3.089 4.933 2.42.452-3.91a.378.378 0 0 1 .129-.244l4.012-3.528a.813.813 0 0 0 .26-.783l-1.185-5.577a.385.385 0 1 1 .752-.16l1.186 5.577c.119.56-.074 1.143-.507 1.523l-3.9 3.429-.499 4.305a.386.386 0 0 1-.198.294.387.387 0 0 1-.181.045z" fill="#009432" fill-opacity=".5"/><path d="M19.246 8.757a.382.382 0 0 1-.383-.361l-.408-6.528a.385.385 0 0 1 .768-.048l.408 6.527a.385.385 0 0 1-.36.408c-.01.002-.018.002-.025.002z" fill="#009432" fill-opacity=".5"/><path d="M19.098 13.388a.387.387 0 0 1-.364-.512l1.002-2.864a1.264 1.264 0 0 0 .01-.966l-.177-.44-.215.294a.387.387 0 0 1-.54.083.386.386 0 0 1-.082-.54l.244-.332a.747.747 0 0 1 1.29.162l.194.487a2.04 2.04 0 0 1 0 1.514l-.999 2.854a.385.385 0 0 1-.363.26zM1.917 16.209c-.09 0-.181-.03-.254-.096L.54 15.126a1.588 1.588 0 0 1-.506-1.523L2.702 1.058A1.337 1.337 0 0 1 4.382.053 1.636 1.636 0 0 1 5.56 1.62c0 .036 0 .07-.004.107l-.414 6.669a.384.384 0 1 1-.768-.048l.418-6.674c.002-.024.002-.039.002-.056A.866.866 0 0 0 4.172.79a.56.56 0 0 0-.45.058.56.56 0 0 0-.264.368L.79 13.765a.817.817 0 0 0 .26.783l1.122.987a.384.384 0 0 1-.254.674zM5.323 23.2a.388.388 0 0 1-.383-.34l-.498-4.306-1.815-1.595a.384.384 0 1 1 .508-.577l1.926 1.693c.071.064.118.15.13.245l.453 3.91 4.933-2.42.146-3.092a1.787 1.787 0 0 0-.015-.354.385.385 0 0 1 .76-.113c.025.163.033.333.023.506l-.158 3.316a.385.385 0 0 1-.216.327l-5.625 2.762a.403.403 0 0 1-.17.038z" fill="#009432" fill-opacity=".5"/><path d="M4.905 13.387c-.16 0-.307-.1-.363-.258l-.999-2.853a2.03 2.03 0 0 1-.002-1.515l.194-.485a.743.743 0 0 1 1.288-.164l.473.647a.384.384 0 1 1-.62.456l-.444-.608-.177.44a1.26 1.26 0 0 0 .004.948l.008.017 1.002 2.864a.384.384 0 0 1-.364.511z" fill="#009432" fill-opacity=".5"/><path d="M12.116 16.767c-.37 0-.735-.027-1.087-.08a.384.384 0 0 1-.325-.332 2.052 2.052 0 0 0-.697-1.295l-1.776-1.524a5.674 5.674 0 0 1-.893-.967l-2.46-3.356a.383.383 0 0 1-.075-.227v-7.23a.384.384 0 0 1 .55-.348c.901.425 2.543 1.106 3.114 1.118.747.011 2.845-.807 3.595-1.124.1-.043.212-.04.31.004.947.433 2.656 1.12 3.208 1.12.426 0 1.644-.406 3.106-1.036l.204-.088a.386.386 0 0 1 .54.352V8.67a.383.383 0 0 1-.076.228l-2.69 3.673c-.26.354-.56.68-.893.966l-1.777 1.525a2.07 2.07 0 0 0-.702 1.32.384.384 0 0 1-.337.337c-.273.03-.554.048-.839.048zm-.702-.807c.38.04.781.048 1.168.02.135-.58.45-1.105.908-1.502l1.778-1.526c.29-.246.549-.529.774-.835l2.617-3.57V2.34c-.977.408-2.413.956-3.079.956-.804 0-2.771-.85-3.373-1.12-.645.268-2.835 1.138-3.755 1.12-.681-.013-2.088-.59-2.879-.94V8.86l2.386 3.256a4.9 4.9 0 0 0 .774.835l1.776 1.525c.454.39.768.91.905 1.483z" fill="#009432" fill-opacity=".5"/><path d="M10.872 11.306a.384.384 0 0 1-.272-.114L8.766 9.358a.378.378 0 0 1-.113-.271V7.593a.385.385 0 0 1 .656-.273l1.563 1.56 3.668-3.667a.385.385 0 0 1 .656.273v1.493c0 .102-.04.2-.114.272l-3.939 3.941a.384.384 0 0 1-.271.114zm-1.45-2.379l1.45 1.45 3.554-3.555v-.406l-3.283 3.283a.386.386 0 0 1-.545 0L9.423 8.52v.406zM6.15 20.808a.385.385 0 0 1-.179-.725l3.657-1.925a.385.385 0 1 1 .358.681l-3.657 1.925a.373.373 0 0 1-.179.044zM17.89 20.808a.379.379 0 0 1-.18-.044l-3.656-1.924a.385.385 0 1 1 .358-.682l3.657 1.925a.385.385 0 0 1-.18.725z" fill="#009432" fill-opacity=".5"/></svg>