<svg width="24" height="24" viewBox="0 0 24 24" fill="none" xmlns="http://www.w3.org/2000/svg"><g fill="#009432" fill-opacity=".5"><path d="M8.913 21.429a6.53 6.53 0 0 1-4.032-1.376.43.43 0 0 1-.077-.6.427.427 0 0 1 .601-.078 5.687 5.687 0 0 0 3.51 1.196 5.75 5.75 0 0 0 5.744-5.743 5.752 5.752 0 0 0-5.746-5.744A5.75 5.75 0 0 0 3.17 14.83c0 1.283.413 2.496 1.196 3.51a.429.429 0 0 1-.678.524 6.53 6.53 0 0 1-1.376-4.032 6.607 6.607 0 0 1 6.6-6.599 6.607 6.607 0 0 1 6.598 6.6 6.602 6.602 0 0 1-6.597 6.596z"/><path d="M8.913 9.085a.43.43 0 0 1-.427-.428V6.599a.43.43 0 0 1 .427-.428.43.43 0 0 1 .428.428v2.058c0 .237-.19.428-.428.428z"/><path d="M9.942 6.77H7.884a.43.43 0 0 1-.427-.428.43.43 0 0 1 .427-.428h2.058a.428.428 0 1 1 0 .856zM5.829 9.912a.427.427 0 0 1-.37-.214l-1.03-1.781a.429.429 0 0 1 .157-.584.429.429 0 0 1 .584.156L6.199 9.27a.429.429 0 0 1-.37.641z"/><path d="M3.78 8.421a.427.427 0 0 1-.214-.797l1.782-1.03a.429.429 0 0 1 .584.157.429.429 0 0 1-.157.584L3.994 8.364a.408.408 0 0 1-.214.057zM3.568 12.171a.434.434 0 0 1-.214-.058l-1.782-1.029a.427.427 0 1 1 .428-.74l1.782 1.03a.427.427 0 0 1-.214.797z"/><path d="M1.05 11.904a.427.427 0 0 1-.37-.642L1.71 9.48a.427.427 0 1 1 .74.428L1.42 11.69a.427.427 0 0 1-.37.214zM2.742 15.258H.685a.43.43 0 0 1-.428-.428.43.43 0 0 1 .428-.428h2.057a.43.43 0 0 1 .428.428.43.43 0 0 1-.428.428z"/><path d="M.428 16.284A.43.43 0 0 1 0 15.857v-2.058a.43.43 0 0 1 .428-.428.43.43 0 0 1 .428.428v2.058a.428.428 0 0 1-.428.427zM1.788 19.371a.427.427 0 0 1-.214-.798l1.782-1.029a.428.428 0 0 1 .428.74l-1.782 1.03a.413.413 0 0 1-.214.057z"/><path d="M2.08 20.391a.427.427 0 0 1-.37-.213L.68 18.395a.429.429 0 0 1 .156-.584.429.429 0 0 1 .584.156l1.03 1.782a.428.428 0 0 1-.37.641zM4.798 22.383a.427.427 0 0 1-.37-.642l1.029-1.782a.427.427 0 1 1 .74.428L5.168 22.17a.418.418 0 0 1-.37.214z"/><path d="M5.562 23.12a.434.434 0 0 1-.214-.057l-1.782-1.029a.427.427 0 1 1 .428-.74l1.781 1.029a.427.427 0 0 1-.213.798zM8.913 23.487a.43.43 0 0 1-.427-.428V21a.43.43 0 0 1 .427-.428.43.43 0 0 1 .428.428v2.058c0 .235-.19.428-.428.428z"/><path d="M9.942 23.743H7.884a.43.43 0 0 1-.427-.427.43.43 0 0 1 .427-.428h2.058a.428.428 0 0 1 0 .856zM13.029 22.383a.427.427 0 0 1-.37-.214l-1.03-1.782a.429.429 0 0 1 .741-.428l1.029 1.782a.429.429 0 0 1-.37.642z"/><path d="M12.267 23.12a.427.427 0 0 1-.213-.797l1.781-1.029a.428.428 0 0 1 .428.74l-1.782 1.029a.435.435 0 0 1-.214.058zM16.04 19.371a.434.434 0 0 1-.213-.058l-1.782-1.028a.427.427 0 1 1 .428-.74l1.781 1.028a.427.427 0 0 1-.213.798z"/><path d="M15.75 20.391a.427.427 0 0 1-.37-.642l1.026-1.781a.427.427 0 1 1 .74.428l-1.028 1.781a.421.421 0 0 1-.368.214zM17.142 15.258h-2.058a.429.429 0 0 1-.428-.428c0-.235.193-.428.428-.428h2.058a.428.428 0 1 1 0 .856z"/><path d="M17.4 16.284a.429.429 0 0 1-.427-.427v-2.058c0-.235.193-.428.428-.428s.428.193.428.428v2.058a.428.428 0 0 1-.428.427z"/><g><path d="M14.259 12.171a.427.427 0 0 1-.214-.798l1.782-1.029a.429.429 0 0 1 .584.157.429.429 0 0 1-.157.583l-1.781 1.03a.429.429 0 0 1-.214.057z"/><path d="M16.779 11.904a.427.427 0 0 1-.37-.214l-1.03-1.782a.427.427 0 1 1 .74-.428l1.03 1.782a.429.429 0 0 1-.37.642z"/></g><g><path d="M12 9.912a.427.427 0 0 1-.37-.642l1.029-1.781a.427.427 0 1 1 .74.428l-1.03 1.781a.427.427 0 0 1-.37.214z"/><path d="M14.047 8.421a.435.435 0 0 1-.214-.057l-1.782-1.03a.427.427 0 1 1 .428-.74l1.782 1.03a.427.427 0 0 1-.214.797z"/></g><path d="M6.342 13.2a.491.491 0 0 1-.163-.032.386.386 0 0 1-.139-.094.424.424 0 0 1 .065-.657.317.317 0 0 1 .075-.04.437.437 0 0 1 .466.092.431.431 0 0 1 0 .605.43.43 0 0 1-.304.126zM9.172 11.656a.433.433 0 0 1-.304-.124c-.019-.02-.036-.043-.053-.067a.392.392 0 0 1-.062-.154.431.431 0 0 1 .116-.385.44.44 0 0 1 .605 0 .431.431 0 0 1 0 .606.431.431 0 0 1-.302.124zM12.081 12.86a.37.37 0 0 1-.083-.009.49.49 0 0 1-.154-.062.435.435 0 0 1-.19-.357.434.434 0 0 1 .344-.42.437.437 0 0 1 .32.065.428.428 0 0 1 .19.355.433.433 0 0 1-.123.304.436.436 0 0 1-.304.124zM12.34 15.947a.425.425 0 0 1-.396-.266.485.485 0 0 1-.025-.079.548.548 0 0 1-.009-.083c0-.028.004-.056.009-.084a.513.513 0 0 1 .064-.154.44.44 0 0 1 .712 0 .473.473 0 0 1 .064.154c.005.028.009.056.009.084 0 .027-.004.055-.009.083a.495.495 0 0 1-.064.154.424.424 0 0 1-.355.19zM10.796 18.26a.48.48 0 0 1-.162-.032.502.502 0 0 1-.14-.093.43.43 0 0 1 .605-.605.427.427 0 0 1-.304.732zM7.968 18.774a.545.545 0 0 1-.084-.006.511.511 0 0 1-.154-.064c-.023-.017-.047-.035-.066-.054-.02-.019-.036-.043-.053-.066a.393.393 0 0 1-.062-.154.357.357 0 0 1-.009-.084.37.37 0 0 1 .009-.083.497.497 0 0 1 .062-.154.402.402 0 0 1 .193-.156.438.438 0 0 1 .248-.026.487.487 0 0 1 .217.118.433.433 0 0 1 .118.385.515.515 0 0 1-.064.154.402.402 0 0 1-.193.158.487.487 0 0 1-.079.026.545.545 0 0 1-.083.006zM6.167 16.46a.37.37 0 0 1-.084-.009.502.502 0 0 1-.154-.062.426.426 0 0 1-.182-.44c.007-.026.013-.054.024-.08a.504.504 0 0 1 .094-.139.386.386 0 0 1 .14-.091.487.487 0 0 1 .078-.026.438.438 0 0 1 .388.117c.019.02.036.041.05.065a.369.369 0 0 1 .064.154.433.433 0 0 1-.116.387.436.436 0 0 1-.302.124zM8.997 15.174a.432.432 0 0 1-.304-.124.432.432 0 0 1 .066-.659.522.522 0 0 1 .154-.064.438.438 0 0 1 .167 0 .578.578 0 0 1 .154.064.433.433 0 0 1 .19.355.438.438 0 0 1-.19.358.493.493 0 0 1-.154.062.364.364 0 0 1-.083.008zM10.772 9.341a.428.428 0 0 1-.42-.346 5.863 5.863 0 0 1 1.614-5.258 5.819 5.819 0 0 1 3.399-1.67.428.428 0 0 1 .109.849 4.957 4.957 0 0 0-2.903 1.426 5.01 5.01 0 0 0-1.377 4.492.428.428 0 0 1-.422.507zM16.122 13.754c-.417 0-.839-.045-1.256-.135a.428.428 0 0 1 .182-.836 4.996 4.996 0 0 0 4.61-1.354 4.98 4.98 0 0 0 1.467-3.542 4.977 4.977 0 0 0-1.467-3.542 4.957 4.957 0 0 0-2.903-1.427.427.427 0 1 1 .11-.85 5.819 5.819 0 0 1 3.398 1.671 5.828 5.828 0 0 1 1.718 4.148c0 1.566-.61 3.04-1.718 4.147a5.848 5.848 0 0 1-4.141 1.72z"/><g><path d="M21.243 13.442a.426.426 0 0 1-.302-.126l-1.281-1.282a.429.429 0 0 1 .605-.605l1.281 1.281a.429.429 0 0 1-.303.732z"/><path d="M20.762 14.242a.429.429 0 0 1-.302-.732l1.281-1.281a.429.429 0 0 1 .605.605l-1.283 1.284a.424.424 0 0 1-.301.124z"/></g><g><path d="M23.119 10.19a.409.409 0 0 1-.112-.015l-1.752-.468a.426.426 0 0 1-.301-.524.426.426 0 0 1 .524-.302l1.752.469a.427.427 0 1 1-.111.84z"/><path d="M23.104 11.125a.426.426 0 0 1-.413-.54l.468-1.75a.427.427 0 1 1 .826.222l-.469 1.752a.429.429 0 0 1-.412.316z"/></g><g><path d="M21.367 6.907a.429.429 0 0 1-.111-.84l1.751-.469a.428.428 0 0 1 .223.826l-1.752.468a.497.497 0 0 1-.111.015z"/><path d="M23.572 7.254a.429.429 0 0 1-.413-.317l-.468-1.752a.428.428 0 0 1 .826-.222l.468 1.752a.428.428 0 0 1-.413.539z"/></g><g><path d="M19.96 4.469a.429.429 0 0 1-.302-.732l1.28-1.281a.429.429 0 0 1 .606.605l-1.281 1.281a.427.427 0 0 1-.304.127z"/><path d="M22.043 3.667a.426.426 0 0 1-.302-.127L20.46 2.26a.429.429 0 0 1 .605-.605l1.281 1.281a.429.429 0 0 1-.303.732z"/></g><g><path d="M17.523 3.061a.426.426 0 0 1-.413-.539L17.578.77a.426.426 0 0 1 .525-.301.426.426 0 0 1 .301.524l-.468 1.752a.429.429 0 0 1-.413.316z"/><path d="M18.926 1.324a.41.41 0 0 1-.111-.015L17.063.841a.426.426 0 0 1-.302-.524.426.426 0 0 1 .524-.302l1.752.469a.429.429 0 1 1-.111.84z"/></g><g><path d="M14.706 3.061a.429.429 0 0 1-.413-.317L13.825.993A.428.428 0 0 1 14.65.77l.469 1.752a.428.428 0 0 1-.413.54z"/><path d="M13.303 1.324a.429.429 0 0 1-.112-.84l1.752-.469a.428.428 0 0 1 .223.826l-1.752.468a.399.399 0 0 1-.111.015z"/></g><g><path d="M12.27 4.469a.426.426 0 0 1-.302-.127l-1.281-1.281a.429.429 0 0 1 .605-.605l1.281 1.281a.429.429 0 0 1-.304.732z"/><path d="M10.186 3.666a.429.429 0 0 1-.302-.732l1.282-1.28a.429.429 0 0 1 .605.605L10.49 3.54a.426.426 0 0 1-.304.126z"/></g><path d="M18.999 7.994c-.028 0-.056-.005-.084-.009a.515.515 0 0 1-.154-.064.42.42 0 0 1-.19-.355c0-.113.045-.225.126-.304a.443.443 0 0 1 .604 0 .426.426 0 0 1 0 .605.43.43 0 0 1-.302.127zM18.199 10.717a.433.433 0 0 1-.304-.124.43.43 0 0 1 .605-.605.431.431 0 0 1 0 .605.399.399 0 0 1-.066.051.37.37 0 0 1-.152.064.382.382 0 0 1-.083.009zM13.55 10.017a.37.37 0 0 1-.083-.008.35.35 0 0 1-.081-.024.474.474 0 0 1-.073-.038.425.425 0 0 1 .073-.75.438.438 0 0 1 .402.038.386.386 0 0 1 .064.053c.022.019.039.04.054.064a.481.481 0 0 1 .073.237.427.427 0 0 1-.428.428zM13.07 7.615a.551.551 0 0 1-.084-.009.49.49 0 0 1-.154-.064.433.433 0 0 1-.19-.355.438.438 0 0 1 .19-.355.365.365 0 0 1 .154-.064.437.437 0 0 1 .387.116.43.43 0 0 1-.066.659.47.47 0 0 1-.154.063.523.523 0 0 1-.084.01zM14.511 5.532a.424.424 0 0 1-.393-.266.486.486 0 0 1-.026-.079.545.545 0 0 1 0-.167.511.511 0 0 1 .064-.154.434.434 0 0 1 .52-.158.3.3 0 0 1 .072.04.391.391 0 0 1 .067.052.47.47 0 0 1 .118.22.43.43 0 0 1-.421.511zM17.076 5.852a.43.43 0 0 1-.302-.731.442.442 0 0 1 .604 0 .425.425 0 0 1-.14.697.486.486 0 0 1-.079.026.551.551 0 0 1-.083.008zM16.115 8.415a.345.345 0 0 1-.083-.009.393.393 0 0 1-.154-.062c-.024-.017-.047-.034-.066-.053a.471.471 0 0 1-.092-.139.355.355 0 0 1-.024-.081.431.431 0 0 1 .182-.438.514.514 0 0 1 .154-.064.437.437 0 0 1 .246.025.386.386 0 0 1 .139.092.433.433 0 0 1 .118.385.511.511 0 0 1-.064.154.43.43 0 0 1-.355.19z"/></g></svg>