<svg width="48" height="33" viewBox="0 0 48 33" fill="none" xmlns="http://www.w3.org/2000/svg"><path d="M47.415 31.024h-2.342a.585.585 0 0 0 0 1.171h2.342a.585.585 0 1 0 0-1.17zM33.951 8.418a1.458 1.458 0 1 0-.011 2.915 1.458 1.458 0 0 0 .011-2.915zm0 1.756a.287.287 0 0 1-.287-.287.293.293 0 1 1 .586 0 .287.287 0 0 1-.299.27v.017zM39.723 8.418a1.458 1.458 0 1 0 0 2.915 1.458 1.458 0 0 0 0-2.915zm0 1.756a.287.287 0 0 1-.287-.287.293.293 0 1 1 .586 0 .287.287 0 0 1-.3.27v.017zM36.825 7.844a1.458 1.458 0 1 0 0-2.916 1.458 1.458 0 0 0 0 2.916zm0-1.756a.281.281 0 0 1 .281.287.276.276 0 0 1-.28.28.281.281 0 0 1-.288-.28.287.287 0 0 1 .287-.27v-.017zM36.825 11.895a1.457 1.457 0 1 0-.012 2.913 1.457 1.457 0 0 0 .012-2.913zm0 1.756a.293.293 0 1 1 0-.586.293.293 0 0 1 0 .586z" fill="#0C993C"/><path d="M43.27 14.693a8.196 8.196 0 0 0 1.499-3.272h.369a1.171 1.171 0 0 0 1.17-1.171v-.586a1.17 1.17 0 0 0-1.17-1.17h-.293a8.225 8.225 0 0 0-.943-2.793 1.43 1.43 0 0 0-.1-.158 5.523 5.523 0 0 0-.24-.398l.276-.269a1.17 1.17 0 0 0 0-1.645l-.41-.415a1.17 1.17 0 0 0-1.65 0l-.235.234a8.242 8.242 0 0 0-3.26-1.434V1.17A1.17 1.17 0 0 0 37.113 0h-.586a1.17 1.17 0 0 0-1.17 1.17v.405a8.195 8.195 0 0 0-3.267 1.27l-.363-.363a1.17 1.17 0 0 0-1.65 0l-.41.41a1.171 1.171 0 0 0 0 1.645l.327.327a4.785 4.785 0 0 0-.375.586 16.636 16.636 0 0 0-17.789-.99.336.336 0 0 0-.076.047 16.671 16.671 0 0 0-3.36 26.517H.585a.586.586 0 0 0 0 1.171h41.561a.586.586 0 0 0 0-1.17H31.522a16.571 16.571 0 0 0 5.099-11.573 1.17 1.17 0 0 0 1.17-1.171v-.369a8.141 8.141 0 0 0 3.337-1.23l.292.294a1.17 1.17 0 0 0 1.651 0l.41-.41a1.171 1.171 0 0 0 0-1.645l-.21-.228zm-1.124-1.06a.293.293 0 1 1 0-.585.293.293 0 0 1 0 .585zm1.095-1.23a1.434 1.434 0 0 0-1.095-.508 1.451 1.451 0 0 0-.444 2.833 7.077 7.077 0 0 1-5.029 2.095c-.217 0-.434-.011-.65-.035h-.117a7.025 7.025 0 0 1-4.203-1.996 1.453 1.453 0 1 0-1.486-2.125 7.024 7.024 0 0 1-.24-5.268 1.434 1.434 0 0 0 1.047.445 1.452 1.452 0 0 0 .38-2.85 7.066 7.066 0 0 1 10.62.075 1.452 1.452 0 0 0 .585 2.775c.296.011.59-.07.837-.234.216.691.327 1.412.328 2.136a7.059 7.059 0 0 1-.527 2.658h-.006zm-6.609 5.855v-.287.287zm-6.468-2.869l.27-.269.263.293-.182.328-.351-.352zm1.042-2.048a.287.287 0 1 1 .28.28.287.287 0 0 1-.274-.269l-.006-.011zm-2.792-3.565h-.375V9.19h.404v.521l-.03.065zm2.926-3.384a.283.283 0 0 1-.177.261.281.281 0 0 1-.11.02.275.275 0 0 1-.28-.28.28.28 0 0 1 .28-.288.287.287 0 0 1 .258.287h.03zm11.597 0a.28.28 0 0 1-.287.281.275.275 0 0 1-.281-.28.28.28 0 0 1 .497-.182s.035.052.047.082a.276.276 0 0 1-.006.1h.03zm2.224 3.284v.585h-.217V9.688l.217-.012zm-2.54-6.03l.41.405-.17.17c-.13-.141-.258-.281-.393-.416l.152-.158zm-6.088-2.475h.585v.31h-.567l-.018-.31zm-6.03 2.54l.404-.41.27.27a4.382 4.382 0 0 0-.416.392l-.258-.252zm-1.422 2.751a8.228 8.228 0 0 0-.492 1.563h-.585a1.17 1.17 0 0 0-1.17 1.171v.585a1.17 1.17 0 0 0 1.17 1.171h.48a8.236 8.236 0 0 0 1.217 3.249l-.392.386a1.17 1.17 0 0 0 0 1.645l.41.41c.063.061.131.116.205.164l-1.17 2.125a2.341 2.341 0 0 1-3.296.866l-3.513-2.19a2.341 2.341 0 0 1-.96-2.791l1.066-2.927c.244-.67.28-1.4.1-2.09l-.457-1.756a3.513 3.513 0 0 0-4.098-2.564l-.96.187a2.341 2.341 0 0 1-1.235-.087l-1.926-.691a15.483 15.483 0 0 1 15.53 1.586l.076-.012zM5.175 23.702l6.345-5.965a1.17 1.17 0 0 1 1.405-.147l2.74 1.663a1.17 1.17 0 0 1 .392 1.615l-1.47 2.377a2.344 2.344 0 0 0 .785 3.231l.585.346a2.341 2.341 0 0 0 2.927-.434l.913-1a1.171 1.171 0 0 1 1.703-.036l1.171 1.17a1.171 1.171 0 0 1 .176 1.406l-1.82 3.096h-10.87a15.466 15.466 0 0 1-4.982-7.323zm17.203 7.322l1.458-2.51a2.341 2.341 0 0 0-.357-2.816l-1.17-1.171a2.401 2.401 0 0 0-1.716-.703 2.341 2.341 0 0 0-1.662.761l-.913 1.007a1.172 1.172 0 0 1-1.47.21l-.585-.339a1.17 1.17 0 0 1-.386-1.621l1.463-2.341a2.342 2.342 0 0 0-.102-2.59 2.306 2.306 0 0 0-.676-.618l-2.74-1.663a2.342 2.342 0 0 0-2.816.293l-5.883 5.502a15.805 15.805 0 0 1-.374-3.418A15.518 15.518 0 0 1 12.135 5.62l2.927 1.053a3.512 3.512 0 0 0 1.855.14l.96-.187a2.341 2.341 0 0 1 2.716 1.71l.457 1.756c.118.46.094.946-.07 1.393l-1.066 2.927a3.513 3.513 0 0 0 1.44 4.18l3.512 2.189a3.465 3.465 0 0 0 2.752.421 3.513 3.513 0 0 0 2.236-1.721l1.533-2.816.041-.035.31-.31a8.277 8.277 0 0 0 3.185 1.475v.48a1.17 1.17 0 0 0 .585 1.001 15.956 15.956 0 0 1-.585 4.033H33.5a2.342 2.342 0 0 0-2.137 1.376l-.75 1.657a2.341 2.341 0 0 0 .65 2.774l.27.217c-.541.607-1.128 1.17-1.756 1.686l-7.4.005zm9.9-2.587l-.27-.222a1.17 1.17 0 0 1-.328-1.388l.75-1.656a1.17 1.17 0 0 1 1.07-.691h.978a15.438 15.438 0 0 1-2.2 3.957zm9.985-12.293l-.175-.181c.14-.123.287-.246.421-.38l.158.152-.404.41z" fill="#0C993C"/></svg>